# xmcd
#
# Track frame offsets:
#	150
#	13780
#	27845
#	43844
#	54863
#	71373
#	85660
#	98356
#	114766
#	129106
#	146808
#	164586
#	179994
#	194620
#	208571
#	220597
#	232746
#	246753
#	261085
#	275269
#
# Disc length: 3871 seconds
#
# Revision: 1
# Processed by: cddbd v1.5.1PL2 Copyright (c) Steve Scherf et al.
# Submitted via: audiograbber 1.83.01
#
DISCID=0e0f1d14
DTITLE=Randy Travis - The Very Best Of Randy Travis
DYEAR=2004
DGENRE=Country
TTITLE0=Diggin' Up Bones
TTITLE1=On The Other Hand
TTITLE2=Forever And Ever, Amen
TTITLE3=Too Gone Too Long
TTITLE4=I Told You So (Single Remix)
TTITLE5=I Won't Need You Anymore (Always And Forever)
TTITLE6=Honky Tonk Moon
TTITLE7=Deeper Than The Holler
TTITLE8=Is It Still Over?
TTITLE9=It's Just A Matter Of Time (Country Single Mix)
TTITLE10=Hard Rock Bottom Of Your Heart (Single Remix)
TTITLE11=He Walked On Water
TTITLE12=Heroes And Friends (Long Single Edit)
TTITLE13=Forever Together
TTITLE14=Better Class Of Losers
TTITLE15=I'm Gonna Have A Little Talk
TTITLE16=If I Didn't Have You
TTITLE17=Look Heart, No Hands
TTITLE18=Whisper My Name
TTITLE19=Three Wooden Crosses
EXTD=
EXTT0=
EXTT1=
EXTT2=
EXTT3=
EXTT4=
EXTT5=
EXTT6=
EXTT7=
EXTT8=
EXTT9=
EXTT10=
EXTT11=
EXTT12=
EXTT13=
EXTT14=
EXTT15=
EXTT16=
EXTT17=
EXTT18=
EXTT19=
PLAYORDER=
